<svg width="102" height="24" viewBox="0 0 102 24" fill="none" xmlns="http://www.w3.org/2000/svg">
<g clip-path="url(#clip0_1099_5733)">
<path d="M28.0627 5.36015H29.0414V17.3443H28.0627V5.36015ZM26.976 13.0847C26.976 15.7603 25.5156 17.538 23.3245 17.538C21.1013 17.538 19.6243 15.7778 19.6243 13.0847C19.6243 10.3564 21.0848 8.61369 23.341 8.61369C25.5639 8.61369 26.976 10.3564 26.976 13.0847ZM20.6895 13.1021C20.6895 15.1617 21.7827 16.7028 23.3087 16.7028C24.8338 16.7028 25.9115 15.1617 25.9115 13.0847C25.9115 10.9898 24.8498 9.44839 23.3244 9.44839C21.7341 9.44839 20.6895 10.9549 20.6895 13.1021ZM47.7216 13.0847C47.7216 15.7603 46.2615 17.538 44.0698 17.538C41.8465 17.538 40.3696 15.7778 40.3696 13.0847C40.3696 10.3564 41.8305 8.61369 44.0863 8.61369C46.3097 8.61369 47.7216 10.3564 47.7216 13.0847ZM41.4348 13.1021C41.4348 15.1617 42.5284 16.7028 44.054 16.7028C45.5792 16.7028 46.6569 15.1617 46.6569 13.0847C46.6569 10.9898 45.5953 9.44839 44.0698 9.44839C42.479 9.44839 41.4348 10.9549 41.4348 13.1021ZM18.8922 13.0847C18.8922 15.7603 17.4317 17.538 15.241 17.538C13.0175 17.538 11.5406 15.7778 11.5406 13.0847C11.5406 10.3564 13.0011 8.61369 15.2569 8.61369C17.4802 8.61369 18.8922 10.3564 18.8922 13.0847ZM12.6059 13.1021C12.6059 15.1617 13.6989 16.7028 15.2247 16.7028C16.7502 16.7028 17.8277 15.1617 17.8277 13.0847C17.8277 10.9898 16.766 9.44839 15.241 9.44839C13.6502 9.44839 12.6059 10.9549 12.6059 13.1021ZM58.5081 8.82475V9.22989C58.4909 9.59972 58.5081 9.98665 58.4581 10.3564C59.0081 9.30028 59.9923 8.70162 61.1437 8.70162C63.028 8.70162 63.7041 10.0922 63.8034 11.8701C63.8376 12.2755 63.8543 12.9619 63.8543 13.3662V17.3445H62.8781V13.3662C62.8781 12.8736 62.8605 12.0406 62.8289 11.6361C62.7115 10.2796 62.0445 9.54098 60.9609 9.54098C60.0752 9.54098 59.2585 10.1215 58.8239 11.0371C58.6585 11.3719 58.591 11.706 58.5414 12.4281C58.5241 12.692 58.5081 13.2261 58.5081 13.3662V17.3445H57.5371V5.36015H58.5081V8.82475ZM69.152 9.82244C68.4947 9.59672 68.1841 9.53099 67.5291 9.50479C66.5547 9.46504 65.8582 10.0922 65.8582 10.814C65.8582 12.5741 69.8528 12.3805 69.8528 15.0916C69.8528 16.5172 68.6661 17.5026 66.9284 17.5026C66.196 17.5026 65.579 17.38 64.8472 17.08L64.917 16.1154C65.6487 16.5199 66.2123 16.6696 66.8627 16.6696C67.9685 16.6696 68.7803 15.9366 68.7803 15.0916C68.7803 13.0493 64.8801 13.4013 64.8801 10.8314C64.8801 9.51167 65.9209 8.64078 67.545 8.66653C68.172 8.67664 68.4664 8.69407 69.2287 8.95809L69.152 9.82244ZM35.5958 8.79322C35.5958 8.79322 36.7844 13.6299 37.0322 14.7627L37.3299 16.1237C37.3299 16.1237 37.515 15.3146 37.6629 14.764C37.9693 13.6239 39.3262 8.79344 39.3262 8.79344H40.3757L37.8996 17.3362H36.7467C36.7467 17.3362 35.4445 11.6929 35.2919 10.9989C35.2153 10.6505 35.1089 10.1198 35.1089 10.1198C35.1089 10.1198 35.0028 10.6505 34.9256 10.9989C34.7731 11.6929 33.4712 17.3362 33.4712 17.3362H32.3177L29.842 8.79333H30.8915C30.8915 8.79333 32.2487 13.624 32.5552 14.7639C32.703 15.3145 32.8877 16.1235 32.8877 16.1235C32.8877 16.1235 33.0648 15.3145 33.1853 14.7626C33.4334 13.6299 34.6217 8.79311 34.6217 8.79311L35.5958 8.79322ZM6.27302 7.50075C6.27302 7.50075 7.87059 13.3222 8.13983 14.3275C8.2906 14.8894 8.52676 15.8796 8.52676 15.8796C8.52676 15.8796 8.73549 14.8878 8.87538 14.3222C9.12275 13.325 10.6177 7.50075 10.6177 7.50075H11.6342L9.10054 17.342H7.98972C7.98972 17.342 6.12968 10.2212 6.04042 9.85708C5.95138 9.49302 5.81725 8.79088 5.81725 8.79088C5.81725 8.79088 5.68336 9.4928 5.59376 9.85708C5.50505 10.2212 3.64479 17.342 3.64479 17.342H2.53374L0 7.50075H1.01678C1.01678 7.50075 2.51165 13.325 2.75857 14.3222C2.8988 14.888 3.10742 15.8796 3.10742 15.8796C3.10742 15.8796 3.34402 14.8891 3.49457 14.3275C3.76403 13.322 5.3616 7.50075 5.3616 7.50075H6.27302ZM48.7758 17.3443V8.80821H49.6065V10.7598C49.6065 10.7598 50.0696 8.9441 52.6493 8.81054C53.0084 8.79177 53.476 8.80288 53.476 8.80288V6.65595L54.4458 6.27768V8.8051H56.439V9.67055H54.4458V14.8594C54.4458 16.0837 54.8284 16.5098 55.6638 16.5098C56.1267 16.5098 56.5081 16.3382 56.5081 16.3382L56.6113 17.1817C56.6113 17.1817 56.1283 17.3398 55.6176 17.3398C55.3546 17.3398 54.5767 17.3772 54.0442 16.8388C53.6882 16.4788 53.476 15.8954 53.476 14.8109C53.476 13.82 53.4776 9.63569 53.4762 9.63569C53.1385 9.63325 52.4118 9.59294 51.8228 9.74683C51.0352 9.95334 49.7469 10.7717 49.7469 12.8138V17.3444H48.7758V17.3443Z" fill="white"/>
<path d="M93.1106 20.228C92.5129 20.228 91.9482 20.1541 91.4162 20.0185C90.5384 21.2258 89.406 22.2681 88.0933 22.9844C89.253 23.6158 90.5544 23.9902 91.9412 23.9902C97.2591 23.9902 100.879 18.4578 101.308 13.7562C101.139 14.3784 100.044 20.228 93.1106 20.228Z" fill="white"/>
<path d="M94.4335 5.52901C91.8754 5.52901 90.644 7.01377 90.644 7.01377C93.2845 7.28101 96.5285 9.14393 96.5285 13.0027C96.5285 16.7502 94.0729 18.4526 92.0655 19.0217C91.8672 19.3654 91.6504 19.6982 91.416 20.0185C91.9481 20.1541 92.5127 20.228 93.1104 20.228C100.044 20.228 101.139 14.3784 101.308 13.7562C101.337 13.4468 101.351 13.1363 101.351 12.8256C101.351 7.5507 97.3236 5.52901 94.4335 5.52901Z" fill="#8F8F8F"/>
<path d="M83.0772 20.228C84.5491 20.228 85.8354 19.7784 86.8643 19.058C86.5117 19.1636 86.0783 19.25 85.6419 19.25C83.6845 19.25 79.6591 17.8008 79.6591 13.0027C79.6591 9.14371 82.9032 7.28101 85.5436 7.01377C85.5436 7.01377 84.3122 5.52901 81.7543 5.52901C78.8639 5.52901 74.8364 7.5507 74.8364 12.8256C74.8364 13.1315 74.8496 13.4407 74.8793 13.7562C75.0483 14.3836 76.1226 20.228 83.0772 20.228Z" fill="#8F8F8F"/>
<path d="M85.6418 19.2501C86.0779 19.2501 86.5117 19.1636 86.8642 19.058L86.8649 19.0579C87.3391 18.7267 87.7577 18.3349 88.1154 17.9067V17.9064C87.8711 17.5997 86.7372 16.0655 86.7372 14.0127C86.7372 12.0928 87.766 11.2732 88.1057 11.0545C88.1055 11.0541 88.1052 11.0538 88.1048 11.0536C87.3987 10.5272 86.6026 10.3749 86.1501 10.3749C85.4205 10.3749 83.4499 10.8747 82.9849 13.125C82.9849 13.1243 82.9853 13.1234 82.9853 13.1228L82.9839 13.1296C82.9671 13.2191 82.9522 13.309 82.9392 13.3992C82.8922 13.7744 82.8652 14.1896 82.8652 14.6441C82.8652 16.4495 83.6335 18.0636 84.2341 19.0529C84.7549 19.1897 85.2425 19.2501 85.6418 19.2501Z" fill="#8F8F8F"/>
<path d="M88.1306 8.59291C84.919 8.59291 83.3926 10.9541 82.9849 13.1248C83.4499 10.8745 85.4205 10.3747 86.1501 10.3747C86.6026 10.3747 87.3987 10.527 88.1048 11.0534C88.1053 11.0537 88.1056 11.0537 88.1057 11.0543C88.8758 11.6275 89.5394 12.5979 89.5394 14.1459C89.5394 15.4655 89.026 16.8158 88.1154 17.9062V17.9065C86.9785 19.2711 85.2244 20.2278 83.0771 20.2278C76.1225 20.2278 75.0483 14.3834 74.8794 13.756C75.3084 18.4575 78.928 23.99 84.2468 23.99C89.4397 23.99 93.4078 18.748 93.4078 14.3582C93.4079 11.3142 91.6804 8.59291 88.1306 8.59291Z" fill="white"/>
<path d="M88.2271 6.8006C88.2271 6.8006 87.1187 5.73597 87.0414 4.28451C86.9851 3.22809 87.414 1.61187 89.0863 0.71544C93.0006 -1.3793 96.4026 1.66805 96.0085 3.64233C96.0085 3.64233 93.0927 2.31689 90.4086 3.90313C88.4339 5.06936 88.2271 6.8006 88.2271 6.8006Z" fill="white"/>
</g>
<defs>
<clipPath id="clip0_1099_5733">
<rect width="101.351" height="24" fill="white"/>
</clipPath>
</defs>
</svg>
