<svg width="150" height="24" viewBox="0 0 150 24" fill="none" xmlns="http://www.w3.org/2000/svg">
<g clip-path="url(#clip0_1288_694)">
<path d="M4.88489 21.5727L6.46264 10.8319H6.52332L9.84064 21.4817C10.3261 23.0695 11.0543 23.7067 12.5511 23.7067C14.0379 23.7067 14.7762 23.0695 15.2616 21.4817L18.5789 10.8319H18.6396L20.096 20.4501C20.3387 22.1188 20.7332 23.7067 22.9582 23.7067C24.1415 23.7067 24.9203 22.8875 25.1832 21.9975C23.6358 20.2984 22.7762 17.9722 22.7762 15.4336C22.7762 13.9671 23.0897 12.5815 23.6561 11.3578L22.5031 4.78382C22.048 2.19469 20.4904 1.67889 19.2465 1.67889C16.7787 1.67889 16.2325 3.10493 14.9886 6.99874L12.5815 14.4526H12.5208L10.1036 6.99874C8.8596 3.10493 8.31346 1.66878 5.8457 1.66878C4.6017 1.66878 3.04418 2.18458 2.58906 4.77371L0.647214 15.909C0.495507 16.7889 0.171866 19.8432 0.0302734 20.6726" fill="#8F8F8F"/>
<path d="M42.7511 18.4374C44.2379 18.4374 45.2796 19.8028 47.3125 19.8028C48.2834 19.8028 48.6475 19.3477 48.6475 18.8622C48.6475 17.8913 47.6159 17.8003 44.9661 16.708C42.5286 15.7067 41.224 14.7864 41.224 12.2377C41.224 9.52718 43.54 6.85715 47.3428 6.85715C49.2543 6.85715 52.8143 7.76739 52.8143 10.2351C52.8143 11.4185 51.9648 12.2478 50.832 12.2478C49.8915 12.2478 48.4857 11.0645 47.0293 11.0645C46.3921 11.0645 45.7853 11.3679 45.7853 12.0657C45.7853 13.9267 53.2088 13.4918 53.2088 18.7004C53.2088 22.048 50.3769 24.0202 47.1203 24.0202C44.1367 24.0202 40.7891 22.8369 40.7891 20.7333C40.7992 19.378 41.6892 18.4374 42.7511 18.4374Z" fill="white"/>
<path d="M56.7283 11.5702H56.1822C54.6651 11.5702 53.6841 10.9027 53.6841 9.37548C53.6841 7.85841 54.655 7.18079 56.1822 7.18079H56.7283V4.08597C56.7283 2.72061 57.6993 1.61821 59.1051 1.61821C60.5008 1.61821 61.4818 2.7105 61.4818 4.08597V7.1909H62.7865C64.3036 7.1909 65.2846 7.85841 65.2846 9.38559C65.2846 10.9027 64.3137 11.5803 62.7865 11.5803H61.4818V21.1075C61.4818 22.4728 60.5109 23.5752 59.1051 23.5752C57.7094 23.5752 56.7283 22.4829 56.7283 21.1075V11.5702Z" fill="white"/>
<path d="M80.9205 17.6789C80.9205 22.0581 77.5121 24 73.5577 24C69.6032 24 66.1948 22.0581 66.1948 17.6789V9.6182C66.1948 8.25284 67.1657 7.15044 68.5716 7.15044C69.9673 7.15044 70.9483 8.24272 70.9483 9.6182V17.0114C70.9483 18.8015 72.3137 19.6308 73.5678 19.6308C74.8118 19.6308 76.1872 18.8116 76.1872 17.0114V9.6182C76.1872 8.25284 77.1582 7.15044 78.564 7.15044C79.9597 7.15044 80.9407 8.24272 80.9407 9.6182V17.6789H80.9205Z" fill="white"/>
<path d="M116.754 13.1681C116.754 8.78887 120.162 6.83691 124.116 6.83691C128.071 6.83691 131.479 8.77876 131.479 13.1681V21.2389C131.479 22.6043 130.508 23.7067 129.103 23.7067C127.707 23.7067 126.726 22.6144 126.726 21.2389V13.8458C126.726 12.0556 125.36 11.2263 124.106 11.2263C122.862 11.2263 121.487 12.0455 121.487 13.8458V21.2389C121.487 22.6043 120.516 23.7067 119.11 23.7067C117.714 23.7067 116.733 22.6144 116.733 21.2389V13.1681H116.754Z" fill="white"/>
<path d="M104.516 16.9709C104.516 17.9722 105.275 19.6207 108.319 19.6207C110.655 19.6207 112.091 18.134 113.184 18.134C114.245 18.134 115.156 18.9532 115.156 20.177C115.156 22.493 111.292 24.0101 107.702 24.0101C102.594 24.0101 99.3984 20.2073 99.3984 15.4336C99.3984 10.8723 102.837 6.85715 107.702 6.85715C112.385 6.85715 115.398 10.7813 115.398 14.9178C115.398 16.5866 114.61 16.981 113.082 16.981H104.516V16.9709ZM110.665 13.7244C110.665 12.6625 109.452 10.8622 107.591 10.8622C105.73 10.8622 104.516 12.6523 104.516 13.7244H110.665Z" fill="white"/>
<path d="M28.6625 16.9709C28.6625 17.9722 29.421 19.6207 32.4653 19.6207C34.8016 19.6207 36.2377 18.134 37.33 18.134C38.392 18.134 39.3022 18.9532 39.3022 20.177C39.3022 22.493 35.4387 24.0101 31.8483 24.0101C26.7409 24.0101 23.5449 20.2073 23.5449 15.4336C23.5449 10.8723 26.9836 6.85715 31.8483 6.85715C36.531 6.85715 39.5449 10.7813 39.5449 14.9178C39.5449 16.5866 38.756 16.981 37.2289 16.981H28.6625V16.9709ZM34.8016 13.7244C34.8016 12.6625 33.5879 10.8622 31.727 10.8622C29.866 10.8622 28.6524 12.6523 28.6524 13.7244H34.8016Z" fill="#8F8F8F"/>
<path d="M134.908 11.5702H134.361C132.844 11.5702 131.863 10.9027 131.863 9.37548C131.863 7.85841 132.834 7.18079 134.361 7.18079H134.908V4.08597C134.908 2.72061 135.878 1.61821 137.284 1.61821C138.68 1.61821 139.661 2.7105 139.661 4.08597V7.1909H140.966C142.483 7.1909 143.464 7.85841 143.464 9.38559C143.464 10.9027 142.493 11.5803 140.966 11.5803H139.661V21.1075C139.661 22.4728 138.69 23.5752 137.284 23.5752C135.889 23.5752 134.908 22.4829 134.908 21.1075V11.5702Z" fill="white"/>
<path d="M2.46776 18.579C3.80278 18.579 4.93552 19.7118 4.93552 21.0468C4.93552 22.4121 3.80278 23.5145 2.46776 23.5145C1.13274 23.5145 0 22.402 0 21.0468C0 19.7219 1.13274 18.579 2.46776 18.579Z" fill="#8F8F8F"/>
<path d="M95.7877 0C94.392 0 93.4109 1.09229 93.4109 2.46776V8.09102C92.5614 7.39317 91.5197 6.75601 89.4868 6.75601C85.3503 6.75601 82.1543 10.5588 82.1543 15.3325C82.1543 19.0948 83.8736 21.9368 86.4122 23.201C87.2415 23.7067 88.263 24.0101 89.3755 24.0101C90.0532 24.0101 90.7004 23.8989 91.287 23.7067C91.8433 23.5449 92.3288 23.292 92.7637 22.9279C93.0772 22.6852 93.3503 22.4121 93.5728 22.1188C93.9874 22.9987 94.7763 23.6258 95.7877 23.6258C97.1834 23.6258 98.1644 22.5335 98.1644 21.158V2.46776C98.1644 1.09229 97.1834 0 95.7877 0ZM90.1543 18.7509C88.3136 18.7509 86.8269 17.2642 86.8269 15.4235C86.8269 13.5828 88.3136 12.0961 90.1543 12.0961C91.9849 12.0961 93.4817 13.5828 93.4817 15.4235C93.4817 17.2642 91.995 18.7509 90.1543 18.7509Z" fill="white"/>
<path d="M149.411 2.88242C149.411 4.29835 148.299 5.42098 146.842 5.42098C145.406 5.42098 144.263 4.30847 144.263 2.88242C144.263 1.49684 145.406 0.374207 146.842 0.374207C148.299 0.38432 149.411 1.49684 149.411 2.88242ZM144.9 2.88242C144.9 3.99494 145.73 4.88495 146.852 4.88495C147.955 4.88495 148.764 3.99494 148.764 2.90265C148.764 1.79014 147.955 0.890009 146.842 0.890009C145.73 0.879896 144.9 1.78002 144.9 2.88242ZM146.448 4.19722H145.871V1.689C146.104 1.63843 146.417 1.60809 146.832 1.60809C147.307 1.60809 147.52 1.689 147.702 1.79014C147.843 1.90139 147.945 2.09355 147.945 2.33628C147.945 2.60935 147.732 2.82174 147.429 2.91277V2.94311C147.672 3.03413 147.813 3.21618 147.884 3.54993C147.965 3.93426 148.005 4.08596 148.066 4.17699H147.439C147.358 4.08596 147.318 3.85335 147.237 3.57016C147.186 3.29709 147.034 3.17572 146.721 3.17572H146.448V4.19722ZM146.468 2.78129H146.741C147.065 2.78129 147.318 2.67003 147.318 2.41719C147.318 2.18457 147.146 2.03287 146.782 2.03287C146.63 2.03287 146.519 2.05309 146.458 2.06321V2.78129H146.468Z" fill="white"/>
</g>
<defs>
<clipPath id="clip0_1288_694">
<rect width="149.411" height="24" fill="white"/>
</clipPath>
</defs>
</svg>
